<?xml version="1.0" encoding="UTF-8" standalone="no"?>
<!DOCTYPE svg PUBLIC "-//W3C//DTD SVG 1.1//EN" "http://www.w3.org/Graphics/SVG/1.1/DTD/svg11.dtd">
<svg width="100%" height="100%" viewBox="0 0 565 128" version="1.1" xmlns="http://www.w3.org/2000/svg" xmlns:xlink="http://www.w3.org/1999/xlink" xml:space="preserve" xmlns:serif="http://www.serif.com/" style="fill-rule:evenodd;clip-rule:evenodd;stroke-linejoin:round;stroke-miterlimit:2;">
    <g transform="matrix(1,0,0,1,-0.94355,-0.289334)">
        <rect id="Artboard1" x="0.944" y="0.289" width="564.872" height="127.065" style="fill:none;"/>
        <g id="Artboard11" serif:id="Artboard1">
            <g transform="matrix(1,0,0,1,0.94355,0.289334)">
                <g transform="matrix(1,0,0,1,-211.041,-37.742)">
                    <path d="M243.2,78.4L255.1,39.8L270.7,39.8L282.5,78.4L295.8,39.8L312,39.8L288.6,106.9L277.5,106.9L262.8,60.2L248.2,106.9L237.1,106.9L213.7,39.8L229.9,39.8L243.2,78.4Z" style="fill-rule:nonzero;"/>
                </g>
                <g transform="matrix(1,0,0,1,-211.041,-37.742)">
                    <rect x="320.1" y="39.8" width="15" height="67.1" style="fill-rule:nonzero;"/>
                </g>
                <g transform="matrix(1,0,0,1,-211.041,-37.742)">
                    <path d="M351.5,39.8L366.6,39.8L366.6,67.4L391.9,39.8L410.4,39.8L383.7,69.5C386,72.7 390.3,78.7 396.5,87.4C402.7,96.1 407.3,102.6 410.4,106.9L392.9,106.9L373.2,80.4L366.5,87.9L366.5,106.9L351.5,106.9L351.5,39.8Z" style="fill-rule:nonzero;"/>
                </g>
                <g transform="matrix(1,0,0,1,-211.041,-37.742)">
                    <rect x="419.7" y="39.8" width="15" height="67.1" style="fill-rule:nonzero;"/>
                </g>
                <g transform="matrix(1,0,0,1,-211.041,-37.742)">
                    <path d="M511.3,64.7L493.2,101.4L484.3,101.4L466.3,64.7L466.3,106.9L451.3,106.9L451.3,39.8L471.6,39.8L488.9,76.7L506.3,39.8L526.5,39.8L526.5,106.9L511.5,106.9L511.5,64.7L511.3,64.7Z" style="fill-rule:nonzero;"/>
                </g>
                <g transform="matrix(1,0,0,1,-211.041,-37.742)">
                    <path d="M591.2,39.8L591.2,53.1L557.8,53.1L557.8,67L587.8,67L587.8,79.8L557.8,79.8L557.8,93.7L592.3,93.7L592.3,106.9L542.9,106.9L542.9,39.8L591.2,39.8Z" style="fill-rule:nonzero;"/>
                </g>
                <g transform="matrix(1,0,0,1,-211.041,-37.742)">
                    <path d="M656.8,48.6C663.2,54.5 666.4,62.6 666.4,73C666.4,83.4 663.3,91.7 657,97.8C650.8,103.9 641.2,106.9 628.4,106.9L605.5,106.9L605.5,39.8L629.2,39.8C641.3,39.8 650.4,42.8 656.8,48.6ZM645.9,88.5C649.6,85 651.4,80 651.4,73.4C651.4,66.8 649.6,61.7 645.9,58.2C642.2,54.6 636.6,52.9 629,52.9L620.6,52.9L620.6,93.7L630.1,93.7C636.9,93.7 642.2,92 645.9,88.5Z" style="fill-rule:nonzero;"/>
                </g>
                <g transform="matrix(1,0,0,1,-211.041,-37.742)">
                    <rect x="679.4" y="39.8" width="15" height="67.1" style="fill-rule:nonzero;"/>
                </g>
                <g transform="matrix(1,0,0,1,-211.041,-37.742)">
                    <path d="M758.7,106.9L752.5,92.4L724.4,92.4L718.2,106.9L702.3,106.9L731.3,39.8L745.8,39.8L774.8,106.9L758.7,106.9ZM738.4,59.8L730,79.3L746.8,79.3L738.4,59.8Z" style="fill-rule:nonzero;"/>
                </g>
            </g>
            <g transform="matrix(1,0,0,1,0.94355,0.289334)">
                <g transform="matrix(1,0,0,1,-211.041,-37.742)">
                    <path d="M241,137.4L241,145.5L254,145.5L254,150.1L241,150.1L241,162.2L236,162.2L236,132.8L255.6,132.8L255.6,137.4L241,137.4Z" style="fill-rule:nonzero;"/>
                </g>
                <g transform="matrix(1,0,0,1,-211.041,-37.742)">
                    <path d="M311.2,158C308.2,160.9 304.6,162.3 300.2,162.3C295.8,162.3 292.2,160.9 289.2,158C286.2,155.1 284.7,151.5 284.7,147.2C284.7,142.9 286.2,139.3 289.2,136.4C292.2,133.5 295.8,132.1 300.2,132.1C304.6,132.1 308.2,133.5 311.2,136.4C314.2,139.3 315.7,142.9 315.7,147.2C315.7,151.5 314.2,155.1 311.2,158ZM307.6,139.7C305.6,137.6 303.1,136.6 300.2,136.6C297.3,136.6 294.8,137.6 292.8,139.7C290.8,141.8 289.8,144.3 289.8,147.2C289.8,150.2 290.8,152.7 292.8,154.7C294.8,156.7 297.3,157.8 300.2,157.8C303.1,157.8 305.6,156.8 307.6,154.7C309.6,152.6 310.6,150.1 310.6,147.2C310.6,144.2 309.6,141.7 307.6,139.7Z" style="fill-rule:nonzero;"/>
                </g>
                <g transform="matrix(1,0,0,1,-211.041,-37.742)">
                    <path d="M353.7,155.4C355,157 356.9,157.8 359.2,157.8C361.5,157.8 363.3,157 364.7,155.4C366.1,153.8 366.7,151.7 366.7,149L366.7,132.7L371.7,132.7L371.7,149.2C371.7,153.4 370.5,156.7 368.2,159C365.9,161.3 362.9,162.4 359.3,162.4C355.7,162.4 352.7,161.3 350.4,159C348.1,156.7 346.9,153.5 346.9,149.2L346.9,132.7L351.9,132.7L351.9,149C351.7,151.7 352.4,153.8 353.7,155.4Z" style="fill-rule:nonzero;"/>
                </g>
                <g transform="matrix(1,0,0,1,-211.041,-37.742)">
                    <path d="M426.6,132.7L431.6,132.7L431.6,162.1L426.2,162.1L409.6,140.7L409.6,162.1L404.6,162.1L404.6,132.7L409.6,132.7L426.7,154.6L426.7,132.7L426.6,132.7Z" style="fill-rule:nonzero;"/>
                </g>
                <g transform="matrix(1,0,0,1,-211.041,-37.742)">
                    <path d="M487.1,136.6C489.9,139.2 491.3,142.7 491.3,147.3C491.3,151.9 489.9,155.5 487.2,158.1C484.5,160.8 480.3,162.1 474.6,162.1L464.9,162.1L464.9,132.7L475,132.7C480.2,132.7 484.3,134 487.1,136.6ZM486.4,147.4C486.4,140.7 482.5,137.3 474.9,137.3L469.9,137.3L469.9,157.4L475.4,157.4C479,157.4 481.7,156.6 483.6,154.9C485.4,153.2 486.4,150.7 486.4,147.4Z" style="fill-rule:nonzero;"/>
                </g>
                <g transform="matrix(1,0,0,1,-211.041,-37.742)">
                    <path d="M527.1,155.4L524.2,162.1L518.9,162.1L531.8,132.7L537.1,132.7L550,162.1L544.7,162.1L541.8,155.4L527.1,155.4ZM539.8,150.8L534.5,138.7L529.2,150.8L539.8,150.8Z" style="fill-rule:nonzero;"/>
                </g>
                <g transform="matrix(1,0,0,1,-211.041,-37.742)">
                    <path d="M588.1,137.3L588.1,162.1L583.1,162.1L583.1,137.3L574.2,137.3L574.2,132.8L597,132.8L597,137.3L588.1,137.3Z" style="fill-rule:nonzero;"/>
                </g>
                <g transform="matrix(1,0,0,1,-211.041,-37.742)">
                    <rect x="627.6" y="132.7" width="5" height="29.4" style="fill-rule:nonzero;"/>
                </g>
                <g transform="matrix(1,0,0,1,-211.041,-37.742)">
                    <path d="M690.4,158C687.4,160.9 683.8,162.3 679.4,162.3C675,162.3 671.4,160.9 668.4,158C665.4,155.1 663.9,151.5 663.9,147.2C663.9,142.9 665.4,139.3 668.4,136.4C671.4,133.5 675,132.1 679.4,132.1C683.8,132.1 687.4,133.5 690.4,136.4C693.4,139.3 694.9,142.9 694.9,147.2C694.9,151.5 693.4,155.1 690.4,158ZM686.8,139.7C684.8,137.6 682.3,136.6 679.4,136.6C676.5,136.6 674,137.6 672,139.7C670,141.8 669,144.3 669,147.2C669,150.2 670,152.7 672,154.7C674,156.7 676.5,157.8 679.4,157.8C682.3,157.8 684.8,156.8 686.8,154.7C688.8,152.6 689.8,150.1 689.8,147.2C689.8,144.2 688.8,141.7 686.8,139.7Z" style="fill-rule:nonzero;"/>
                </g>
                <g transform="matrix(1,0,0,1,-211.041,-37.742)">
                    <path d="M748.3,132.7L753.3,132.7L753.3,162.1L747.9,162.1L731.3,140.7L731.3,162.1L726.3,162.1L726.3,132.7L731.3,132.7L748.4,154.6L748.4,132.7L748.3,132.7Z" style="fill-rule:nonzero;"/>
                </g>
            </g>
        </g>
    </g>
</svg>
