<svg xmlns="http://www.w3.org/2000/svg" width="146" height="148" fill="none"><path fill="#000" d="M131.312 111.814c-4.588-3.7-10.212-7.77-16.058-11.988-8.732-6.29-18.574-13.468-28.046-21.534 1.332 0 2.738.074 4.218.148 5.994.296 12.728.592 20.202-1.702 3.256-1.036 5.624-3.7 6.142-7.104.518-3.33-.962-6.512-3.7-8.362a122.128 122.128 0 0 1-5.698-4.218c-11.174-8.658-29.822-22.94-49.136-8.806C53.76 41.07 48.802 34.04 44.362 27.602 33.336 11.544 26.01.888 17.352.222 14.984 0 11.358.518 7.88 4.218 2.922 9.398.48 18.426.998 30.266 1.59 45.14 6.992 64.75 17.204 83.694c-.37.296-.814.592-1.258.962-18.13 16.798-6.882 37.962-.148 50.616 1.258 2.294 2.368 4.44 3.182 6.29 1.406 3.034 4.292 5.032 7.696 5.106h.222c3.33 0 6.29-1.85 7.844-4.884 3.478-6.956 4.292-13.69 5.032-19.684.296-2.442.592-4.588 1.036-6.586 1.85 1.924 3.7 3.774 5.254 5.18 25.9 22.792 51.356 27.084 66.822 27.084 5.476 0 9.694-.518 12.21-.962 9.398-1.628 16.28-4.958 18.796-8.954 0-.074.148-.148.222-.296v-.074c5.846-10.582-6.734-20.794-12.728-25.678h-.074ZM57.09 70.448c0-.814.148-1.554.296-2.368.074-.592.222-1.184.37-1.702.222-.814.444-1.628.74-2.368.222-.518.37-1.036.592-1.48.37-.814.888-1.628 1.332-2.368.222-.37.444-.74.74-1.11.888-1.11 1.85-2.146 3.034-3.034 4.218-3.256 8.288-4.588 12.432-4.588 8.584 0 17.094 5.846 26.196 12.876 1.85 1.406 3.552 2.738 5.106 3.848-5.55 1.48-10.878 1.258-15.984.962-.74 0-1.406 0-2.146-.074h-6.512c-.37 0-.666 0-1.036.074-.37 0-.74 0-1.11.148-.37 0-.74.074-1.036.148-.37 0-.74.148-1.036.222-.37.074-.74.148-1.036.222a5.45 5.45 0 0 0-1.036.296c-.37.074-.74.222-1.036.37-.296.148-.666.222-.962.37-.37.148-.74.296-1.036.518-.296.148-.592.296-.962.518-.37.222-.74.37-1.036.666l-.888.666c-.37.222-.666.518-1.036.814-.296.222-.592.518-.888.74-.37.296-.666.592-1.036.962-.296.296-.518.592-.814.962-.296.37-.666.74-.962 1.184-.222.296-.518.74-.74 1.036-.296.444-.666.888-.962 1.406l-.666 1.11c-.814 1.48-1.702 3.034-2.442 4.884a53.729 53.729 0 0 0-1.628 4.144c-1.406-5.032-2.59-10.73-2.812-16.206v-1.85c0-.666.074-1.332.148-1.998h-.148ZM10.248 29.896c-.37-9.028 1.184-16.058 4.292-19.24 1.184-1.258 1.924-1.258 2.072-1.184 4.292.37 12.358 12.062 20.202 23.384 4.736 6.808 9.99 14.356 15.91 22.052-5.032 7.474-5.55 16.65-4.662 24.642-7.03-1.998-15.244-2.96-22.866-.37-9.398-17.464-14.43-35.52-14.948-49.284Zm22.792 79.032v.148a36.355 36.355 0 0 0-1.11 3.774v.222c-.296 1.258-.518 2.59-.74 3.848v.148c-.222 1.332-.37 2.59-.518 3.922-.592 5.106-1.258 10.36-3.626 15.614-.814-1.776-1.85-3.7-2.96-5.698-7.992-15.022-13.69-28.416-1.702-39.442 3.7-3.404 8.214-4.736 12.95-4.736 1.554 0 3.182.222 4.81.444.592.074 1.184.222 1.702.296.962.222 1.924.444 2.96.74 4.218 1.184 8.436 2.886 12.136 4.662-1.998.37-3.848.74-5.55 1.258-11.174 3.034-15.91 8.51-18.278 14.8h-.074Zm86.432 29.304c-10.582 1.11-38.332.888-67.266-24.494-1.998-1.776-4.366-4.292-6.808-6.882 2.886-2.442 7.622-4.144 15.392-5.18 8.954 10.212 27.824 25.308 66.23 35.224-2.146.518-4.588 1.036-7.548 1.332Zm-51.578-42.55c2.516-8.14 5.18-12.506 8.436-14.874 1.036.962 2.146 1.998 3.034 2.812 10.286 9.028 21.09 16.798 30.562 23.606 5.772 4.218 11.248 8.14 15.688 11.692 5.402 4.366 8.732 7.844 10.064 10.434-40.404-9.324-59.496-24.42-67.784-33.744v.074Z"/><path fill="#FFD637" d="M23.938 130.832c1.11 2.072 2.146 3.996 2.96 5.698 2.368-5.18 3.034-10.508 3.626-15.614 1.48-11.84 2.96-24.124 26.196-28.046-6.438-3.108-14.356-6.216-21.608-6.216-4.736 0-9.25 1.332-12.95 4.736-11.914 11.026-6.29 24.42 1.702 39.442h.074Zm68.006-61.716c5.106.222 10.434.518 15.984-.962a132.368 132.368 0 0 1-5.106-3.848C93.72 57.276 85.136 51.43 76.626 51.43c-4.144 0-8.214 1.332-12.432 4.588-10.138 7.77-7.622 22.94-4.366 34.484 7.77-22.496 20.128-21.904 32.116-21.312v-.074Z"/><path fill="#FFFDE1" d="M36.37 77.552h.518c3.922.148 7.696.888 11.248 1.924-.222-1.998-.37-4.07-.37-6.142 0-.37 0-.666.074-1.036.148-5.994 1.406-12.136 4.958-17.39-5.92-7.696-11.248-15.244-15.91-22.052C29.044 21.534 20.904 9.842 16.686 9.472c-.222 0-.888 0-2.072 1.184-3.108 3.182-4.662 10.212-4.292 19.24.518 13.69 5.55 31.746 14.948 49.284 3.626-1.258 7.4-1.702 11.174-1.554l-.074-.074Z"/><path fill="#FFD637" d="M60.642 101.676c-7.696 1.036-12.432 2.738-15.318 5.18 2.368 2.59 4.81 5.106 6.808 6.882 28.86 25.456 56.684 25.604 67.266 24.494 2.886-.296 5.402-.74 7.548-1.332-38.332-9.916-57.276-25.012-66.23-35.224h-.074Zm64.898 17.316c-4.366-3.552-9.842-7.548-15.688-11.692-9.472-6.882-20.202-14.652-30.562-23.606a99.114 99.114 0 0 1-3.034-2.886c-3.256 2.368-5.92 6.808-8.436 14.874 8.288 9.398 27.38 24.42 67.784 33.744-1.332-2.59-4.736-6.068-10.064-10.434Z"/></svg>